<svg xmlns="http://www.w3.org/2000/svg" xmlns:xlink="http://www.w3.org/1999/xlink" viewBox="0 0 337.59 56.88"><defs><style>.cls-1{fill:url(#linear-gradient);}.cls-2{fill:url(#linear-gradient-2);}.cls-3{fill:#fff;}</style><linearGradient id="linear-gradient" x1="253.66" y1="85.81" x2="83.93" y2="-83.93" gradientUnits="userSpaceOnUse"><stop offset="0.09" stop-color="#9adbf9"/><stop offset="0.43" stop-color="#007b9c"/><stop offset="0.58" stop-color="#00648b"/><stop offset="0.78" stop-color="#007b9c"/><stop offset="1" stop-color="#9adbf9"/></linearGradient><linearGradient id="linear-gradient-2" x1="253.66" y1="140.81" x2="83.93" y2="-28.93" xlink:href="#linear-gradient"/></defs><title>action</title><g id="Layer_2" data-name="Layer 2"><g id="Layer_1-2" data-name="Layer 1"><rect class="cls-1" width="337.59" height="1.88"/><rect class="cls-2" y="55" width="337.59" height="1.88"/><path class="cls-3" d="M6.73,37.8l-1.27,8H0L5.91,11h7.21l5.82,34.76H13.43l-1.22-8ZM9.49,19,7.54,32.7h3.89Z"/><path class="cls-3" d="M31.65,46.23a8.3,8.3,0,0,1-8.32-8.29V19a8.3,8.3,0,0,1,8.32-8.32,8,8,0,0,1,5.88,2.44A8,8,0,0,1,39.94,19v4H34.51V18.86a3,3,0,0,0-3-3,2.87,2.87,0,0,0-2.12.89,2.94,2.94,0,0,0-.87,2.14v19A2.89,2.89,0,0,0,29.36,40a2.86,2.86,0,0,0,2.12.88A2.91,2.91,0,0,0,33.62,40a2.87,2.87,0,0,0,.89-2.12v-4.8h5.43v4.86a8.28,8.28,0,0,1-8.29,8.29Z"/><path class="cls-3" d="M49.9,16.3H44.33V11H60.69V16.3H55.15V45.79H49.9Z"/><path class="cls-3" d="M70.93,45.79H65.69V11h5.24Z"/><path class="cls-3" d="M84.64,10.59A8.31,8.31,0,0,1,93,18.91v19a8.3,8.3,0,0,1-8.32,8.32,8,8,0,0,1-5.88-2.44,8,8,0,0,1-2.42-5.88v-19a8.31,8.31,0,0,1,8.3-8.32Zm2.85,8.21a3,3,0,0,0-3-3,3,3,0,0,0-2.14.87,2.87,2.87,0,0,0-.89,2.12v19A2.87,2.87,0,0,0,82.36,40a3,3,0,0,0,2.14.87,3,3,0,0,0,3-3Z"/><path class="cls-3" d="M104.23,11l7,23.37V11h5.24V45.79h-5.63l-7.21-22.27V45.79H98.34V11Z"/><path class="cls-3" d="M145.64,29.42a34.75,34.75,0,0,1-3.39,9.38,5.71,5.71,0,0,0,3.53,1.86v4.85a9.88,9.88,0,0,1-6.3-2.77A9.14,9.14,0,0,1,132.82,46a7,7,0,0,1-6.26-3.39,8.85,8.85,0,0,1-1.36-4.88,13.67,13.67,0,0,1,1.3-5.6q.23-.47,1.47-2.55c.46-.74.93-1.45,1.39-2.14L128.28,25c-.52-1.15-.87-2-1.06-2.45a14,14,0,0,1-.77-2.55,12.11,12.11,0,0,1-.25-2.44,9.06,9.06,0,0,1,1-4.27,6.94,6.94,0,0,1,3.05-3.08,7.26,7.26,0,0,1,3.5-.86,7.46,7.46,0,0,1,3.91,1.07,7.11,7.11,0,0,1,2.72,2.95,7.4,7.4,0,0,1,.75,3.3,9.63,9.63,0,0,1-2.2,6l-1.13,1.47c-1,1.35-2,2.61-2.86,3.8a50.61,50.61,0,0,0,3.94,6.79,31.94,31.94,0,0,0,2-6.32ZM132.82,41.18c1.06,0,2.18-.66,3.36-2a49.77,49.77,0,0,1-4.3-6.72l-1,1.72a9.06,9.06,0,0,0-.83,3.55,4,4,0,0,0,.64,2.36A2.44,2.44,0,0,0,132.82,41.18ZM131,17.52a17,17,0,0,0,1.61,5.39l.67-.84.69-.91,1.11-1.47a5.09,5.09,0,0,0,1.22-3,3.55,3.55,0,0,0-.28-1.58,2.32,2.32,0,0,0-4.41-.28A5.7,5.7,0,0,0,131,17.52Z"/><path class="cls-3" d="M162.82,11q4.38,0,6.43,2.42a8.76,8.76,0,0,1,1.8,5.88v5a8.14,8.14,0,0,1-2.8,6.25l3.88,15.17h-5.67L163.29,32.7h-3.5V45.79h-5.24V11ZM166,19.41q0-3-3-3h-3.16V27.51H163a2.89,2.89,0,0,0,2.13-.89,2.93,2.93,0,0,0,.87-2.13Z"/><path class="cls-3" d="M177.41,45.79V11h14.92v5.27h-9.68v9.48h7.07V31h-7.07v9.49h9.68v5.27Z"/><path class="cls-3" d="M203.45,37.8l-1.28,8h-5.46L202.62,11h7.21l5.83,34.76h-5.51l-1.23-8ZM206.2,19,204.26,32.7h3.88Z"/><path class="cls-3" d="M228.37,46.23A8.3,8.3,0,0,1,220,37.94V19a8,8,0,0,1,2.45-5.9,8.33,8.33,0,0,1,11.76,0A8.07,8.07,0,0,1,236.66,19v4h-5.44V18.86a2.88,2.88,0,0,0-.89-2.14,2.91,2.91,0,0,0-2.13-.89,2.87,2.87,0,0,0-2.12.89,2.94,2.94,0,0,0-.88,2.14v19a2.9,2.9,0,0,0,.88,2.12,2.86,2.86,0,0,0,2.12.88,2.9,2.9,0,0,0,2.13-.88,2.83,2.83,0,0,0,.89-2.12v-4.8h5.44v4.86a8.28,8.28,0,0,1-8.29,8.29Z"/><path class="cls-3" d="M246.62,16.3H241V11h16.37V16.3h-5.55V45.79h-5.24Z"/><path class="cls-3" d="M267.65,45.79H262.4V11h5.25Z"/><path class="cls-3" d="M281.35,10.59a8.3,8.3,0,0,1,8.32,8.32v19a8.31,8.31,0,1,1-16.61,0v-19a8.31,8.31,0,0,1,8.29-8.32Zm2.86,8.21a3,3,0,0,0-3-3,2.93,2.93,0,0,0-2.13.87,2.87,2.87,0,0,0-.89,2.12v19a2.87,2.87,0,0,0,.89,2.12,3,3,0,0,0,4.26,0,2.89,2.89,0,0,0,.87-2.12Z"/><path class="cls-3" d="M300.94,11l7,23.37V11h5.24V45.79h-5.63L300.3,23.52V45.79h-5.24V11Z"/><path class="cls-3" d="M335.64,37.13a9.79,9.79,0,0,1-1.89,6.22,6.8,6.8,0,0,1-3.6,2.46,9.88,9.88,0,0,1-2.92.39,8.28,8.28,0,0,1-5.1-1.52,8.46,8.46,0,0,1-2.67-3.4,13.79,13.79,0,0,1-1.16-4.92l5-.36a7.58,7.58,0,0,0,1.6,4.4,2.71,2.71,0,0,0,2.17,1,3.24,3.24,0,0,0,2.74-1.7,4.1,4.1,0,0,0,.53-2.3,6.4,6.4,0,0,0-2-4.3l-4.66-4.42A19.79,19.79,0,0,1,320,24.14a10.55,10.55,0,0,1-1.16-4.89,8.5,8.5,0,0,1,3.19-7.19,7.92,7.92,0,0,1,4.88-1.47,8.89,8.89,0,0,1,4.8,1.25,7.26,7.26,0,0,1,2.51,2.72,10,10,0,0,1,1.15,4l-5,.91a6.08,6.08,0,0,0-1.22-3.32,2.55,2.55,0,0,0-2.08-.86,2.39,2.39,0,0,0-2.19,1.27,4.91,4.91,0,0,0-.61,2.55A7.67,7.67,0,0,0,326.32,24a17.09,17.09,0,0,0,2.33,2.22c1.22,1,2,1.73,2.41,2.13a18,18,0,0,1,3,3.83,14.31,14.31,0,0,1,.8,1.64A9.47,9.47,0,0,1,335.64,37.13Z"/></g></g></svg>