<svg xmlns="http://www.w3.org/2000/svg" xmlns:xlink="http://www.w3.org/1999/xlink" viewBox="0 0 402.96 56.88"><defs><style>.cls-1{fill:#fff;}.cls-2{fill:url(#linear-gradient);}.cls-3{fill:url(#linear-gradient-2);}</style><linearGradient id="linear-gradient" x1="302.02" y1="101.92" x2="100.05" y2="-100.05" gradientUnits="userSpaceOnUse"><stop offset="0.09" stop-color="#9adbf9"/><stop offset="0.43" stop-color="#007b9c"/><stop offset="0.58" stop-color="#00648b"/><stop offset="0.78" stop-color="#007b9c"/><stop offset="1" stop-color="#9adbf9"/></linearGradient><linearGradient id="linear-gradient-2" x1="302.02" y1="156.92" x2="100.05" y2="-45.05" xlink:href="#linear-gradient"/></defs><title>footer-text</title><g id="Layer_2" data-name="Layer 2"><g id="Layer_1-2" data-name="Layer 1"><path class="cls-1" d="M16.47,36.22a8.06,8.06,0,0,1-2.41,5.88,7.88,7.88,0,0,1-5.82,2.44H0V9.76H8.24a7.88,7.88,0,0,1,5.84,2.44,8.09,8.09,0,0,1,2.39,5.85ZM5.24,39.35H8.4a2.79,2.79,0,0,0,2.11-.9,3,3,0,0,0,.86-2.12V18.13A2.93,2.93,0,0,0,10.5,16a2.84,2.84,0,0,0-2.1-.89H5.24Z"/><path class="cls-1" d="M30.07,9.34A8,8,0,0,1,36,11.78a8,8,0,0,1,2.43,5.88v19A8.3,8.3,0,0,1,30.07,45a8,8,0,0,1-5.88-2.44,8,8,0,0,1-2.41-5.88v-19a8,8,0,0,1,2.44-5.89A8,8,0,0,1,30.07,9.34Zm2.86,8.21a3,3,0,0,0-3-3,3,3,0,0,0-2.14.87,2.86,2.86,0,0,0-.88,2.12v19a2.86,2.86,0,0,0,.88,2.12,3,3,0,0,0,2.14.87,3,3,0,0,0,3-3Z"/><path class="cls-1" d="M64.32,9.79h5.5L64.38,44.54h-5l-3-19.12L53.61,44.54h-5L42.78,9.79h5.49L51,28.4,53.54,9.79H59l2.74,18.59Z"/><path class="cls-1" d="M80.89,9.76l7,23.37V9.76h5.24V44.54H87.46L80.25,22.27V44.54H75V9.76Z"/><path class="cls-1" d="M112.84,44.54H98.56V9.79h5.24V39.32h9Z"/><path class="cls-1" d="M125.52,9.34a8.3,8.3,0,0,1,8.32,8.32v19a8.31,8.31,0,1,1-16.61,0v-19a8.31,8.31,0,0,1,8.29-8.32Zm2.86,8.21a3,3,0,0,0-3-3,2.93,2.93,0,0,0-2.13.87,2.87,2.87,0,0,0-.89,2.12v19a2.87,2.87,0,0,0,.89,2.12,2.93,2.93,0,0,0,2.13.87,3,3,0,0,0,3-3Z"/><path class="cls-1" d="M145,36.55l-1.27,8h-5.46l5.91-34.75h7.21l5.82,34.75h-5.51l-1.23-8Zm2.75-18.8-1.94,13.7h3.89Z"/><path class="cls-1" d="M178.84,36.22a8.07,8.07,0,0,1-2.42,5.88,7.88,7.88,0,0,1-5.82,2.44h-8.24V9.76h8.24a7.88,7.88,0,0,1,5.84,2.44,8.06,8.06,0,0,1,2.4,5.85ZM167.6,39.35h3.17a2.78,2.78,0,0,0,2.1-.9,3,3,0,0,0,.86-2.12V18.13a2.93,2.93,0,0,0-.87-2.13,2.84,2.84,0,0,0-2.09-.89H167.6Z"/><path class="cls-1" d="M195.87,9.79A8,8,0,0,1,202,12.2a8.37,8.37,0,0,1,2.1,5.88v5.05a8.09,8.09,0,0,1-2.4,5.88,7.86,7.86,0,0,1-5.81,2.44h-3V44.54h-5.24V9.79ZM199,18.16a3,3,0,0,0-.82-2.19,2.94,2.94,0,0,0-2.18-.83h-3.16V26.26H196a2.83,2.83,0,0,0,2.12-.89,2.9,2.9,0,0,0,.88-2.13Z"/><path class="cls-1" d="M216.76,9.34a8.3,8.3,0,0,1,8.32,8.32v19a8.31,8.31,0,1,1-16.61,0v-19a8.31,8.31,0,0,1,8.29-8.32Zm2.86,8.21a3,3,0,0,0-3-3,2.93,2.93,0,0,0-2.13.87,2.87,2.87,0,0,0-.89,2.12v19a2.87,2.87,0,0,0,.89,2.12,3,3,0,0,0,4.26,0,2.89,2.89,0,0,0,.87-2.12Z"/><path class="cls-1" d="M235.71,33.51v11h-5.24V9.76h5.24v12.4l6.41-12.4h5.59L240.53,24l8.41,20.59h-6.16l-5.5-14.12Z"/><path class="cls-1" d="M254,44.54V9.76h14.92V15h-9.68v9.48h7.08v5.27h-7.08v9.49h9.68v5.27Z"/><path class="cls-1" d="M281.56,9.79c2.93,0,5.07.8,6.44,2.41a8.79,8.79,0,0,1,1.8,5.88v5.05a8.11,8.11,0,0,1-2.8,6.24l3.88,15.17h-5.67L282,31.45h-3.5V44.54H273.3V9.79Zm3.14,8.37q0-3-3-3h-3.16V26.26h3.16a2.82,2.82,0,0,0,2.12-.89,2.9,2.9,0,0,0,.88-2.13Z"/><path class="cls-1" d="M304.9,29.81V44.54h-5.24V9.79h5.24V24.54h6.32V9.79h5.24V44.54h-5.24V29.81Z"/><path class="cls-1" d="M330.17,9.34a8,8,0,0,1,5.89,2.44,8,8,0,0,1,2.43,5.88v19a8.31,8.31,0,1,1-16.61,0v-19a8,8,0,0,1,2.44-5.89A8,8,0,0,1,330.17,9.34ZM333,17.55a3,3,0,0,0-3-3,3,3,0,0,0-2.14.87,2.86,2.86,0,0,0-.88,2.12v19a2.86,2.86,0,0,0,.88,2.12,3,3,0,0,0,2.14.87,3,3,0,0,0,3-3Z"/><path class="cls-1" d="M352.14,44.93a8.25,8.25,0,0,1-8.29-8.27V9.79H349V36.61a2.86,2.86,0,0,0,.88,2.12,3,3,0,0,0,2.14.87,3,3,0,0,0,3-3V9.79h5.46V36.66A7.89,7.89,0,0,1,358,42.54,8.12,8.12,0,0,1,352.14,44.93Z"/><path class="cls-1" d="M382.9,35.89A9.78,9.78,0,0,1,381,42.1a6.84,6.84,0,0,1-3.61,2.47,10.12,10.12,0,0,1-2.91.38,8.25,8.25,0,0,1-5.11-1.52,8.55,8.55,0,0,1-2.67-3.4,13.58,13.58,0,0,1-1.15-4.92l5-.36a7.58,7.58,0,0,0,1.61,4.4,2.67,2.67,0,0,0,2.16,1,3.27,3.27,0,0,0,2.75-1.69,4.25,4.25,0,0,0,.52-2.31,6.36,6.36,0,0,0-2-4.3L371,27.41a19.79,19.79,0,0,1-3.69-4.52A10.44,10.44,0,0,1,366.12,18a8.5,8.5,0,0,1,3.19-7.19,7.92,7.92,0,0,1,4.88-1.47,8.89,8.89,0,0,1,4.8,1.25,7.18,7.18,0,0,1,2.51,2.72,10,10,0,0,1,1.15,4l-5,.92a6,6,0,0,0-1.22-3.33,2.54,2.54,0,0,0-2.08-.86,2.39,2.39,0,0,0-2.19,1.27,4.93,4.93,0,0,0-.61,2.56,7.64,7.64,0,0,0,2.05,4.85A17.71,17.71,0,0,0,375.91,25c1.22,1,2,1.73,2.42,2.13a17.88,17.88,0,0,1,3,3.83,16.43,16.43,0,0,1,.81,1.64A9.77,9.77,0,0,1,382.9,35.89Z"/><path class="cls-1" d="M388,44.54V9.76H403V15h-9.68v9.48h7.07v5.27h-7.07v9.49H403v5.27Z"/><rect class="cls-2" width="402.06" height="1.88"/><rect class="cls-3" y="55" width="402.06" height="1.88"/></g></g></svg>