<svg xmlns="http://www.w3.org/2000/svg" xmlns:xlink="http://www.w3.org/1999/xlink" viewBox="0 0 178.31 56.88"><defs><style>.cls-1{fill:url(#linear-gradient);}.cls-2{fill:url(#linear-gradient-2);}.cls-3{fill:#fff;}</style><linearGradient id="linear-gradient" x1="134.2" y1="45.99" x2="44.11" y2="-44.11" gradientUnits="userSpaceOnUse"><stop offset="0.09" stop-color="#9adbf9"/><stop offset="0.43" stop-color="#007b9c"/><stop offset="0.58" stop-color="#00648b"/><stop offset="0.78" stop-color="#007b9c"/><stop offset="1" stop-color="#9adbf9"/></linearGradient><linearGradient id="linear-gradient-2" x1="134.2" y1="100.99" x2="44.11" y2="10.89" xlink:href="#linear-gradient"/></defs><title>gameplaytext</title><g id="Layer_2" data-name="Layer 2"><g id="Layer_1-2" data-name="Layer 1"><rect class="cls-1" width="178.31" height="1.88"/><rect class="cls-2" y="55" width="178.31" height="1.88"/><path class="cls-3" d="M10.12,45.79a8,8,0,0,1-5.89-2.44A8,8,0,0,1,1.8,37.49v-19a8,8,0,0,1,2.44-5.89,8,8,0,0,1,5.88-2.43A8,8,0,0,1,16,12.64a8.06,8.06,0,0,1,2.41,5.88v4H13V18.41a3,3,0,0,0-3-3,2.87,2.87,0,0,0-2.12.89A2.93,2.93,0,0,0,7,18.41v19a3,3,0,0,0,3,3,3,3,0,0,0,2.14-.87A2.85,2.85,0,0,0,13,37.45V30.62H10.06V25.35h8.35V37.49A7.92,7.92,0,0,1,16,43.37,8,8,0,0,1,10.12,45.79Z"/><path class="cls-3" d="M29.53,37.36l-1.27,8H22.8l5.91-34.75h7.21l5.82,34.75H36.23l-1.23-8Zm2.75-18.81-1.94,13.7h3.89Z"/><path class="cls-3" d="M52.17,45.34H46.93V10.56h7.52l4.89,25,4.69-25h7.23V45.34H66V23.49L61.47,45.34H57.25l-5.08-21.8Z"/><path class="cls-3" d="M76.72,45.34V10.56H91.65v5.27H82v9.49H89v5.27H82v9.48h9.68v5.27Z"/><path class="cls-3" d="M108.68,10.59a8,8,0,0,1,6.1,2.41,8.37,8.37,0,0,1,2.11,5.88v5.05a8.08,8.08,0,0,1-2.4,5.88,7.83,7.83,0,0,1-5.81,2.44h-3V45.34h-5.24V10.59ZM111.82,19a3,3,0,0,0-.82-2.19,2.91,2.91,0,0,0-2.18-.84h-3.16V27.07h3.16a2.87,2.87,0,0,0,2.12-.89,2.92,2.92,0,0,0,.88-2.14Z"/><path class="cls-3" d="M136.14,45.34H121.86V10.59h5.24V40.13h9Z"/><path class="cls-3" d="M147.26,37.36l-1.27,8h-5.46l5.91-34.75h7.21l5.82,34.75H154l-1.22-8ZM150,18.55l-2,13.7H152Z"/><path class="cls-3" d="M166,30.78l-7-20.22h5.77L168.66,23l3.85-12.48h5.8l-7,20.22V45.34H166Z"/></g></g></svg>