<svg xmlns="http://www.w3.org/2000/svg" xmlns:xlink="http://www.w3.org/1999/xlink" viewBox="0 0 16.57 16.51"><defs><style>.cls-1{stroke-miterlimit:10;stroke-width:0.75px;stroke:url(#linear-gradient);}.cls-2{fill:#fff;}</style><linearGradient id="linear-gradient" x1="14.13" y1="14.1" x2="2.44" y2="2.41" gradientUnits="userSpaceOnUse"><stop offset="0" stop-color="#045d97"/><stop offset="0.24" stop-color="#4f9bc8"/><stop offset="0.51" stop-color="#fff"/><stop offset="0.77" stop-color="#4f9bc8"/><stop offset="1" stop-color="#045d97"/></linearGradient></defs><title>linkedin</title><g id="Layer_2" data-name="Layer 2"><g id="Layer_1-2" data-name="Layer 1"><ellipse class="cls-1" cx="8.28" cy="8.25" rx="7.91" ry="7.88"/><polygon class="cls-2" points="4.95 7.86 4.95 11.12 6.5 11.12 6.5 7.6 6.5 6.68 4.95 6.68 4.95 7.86"/><path class="cls-2" d="M5.73,4.47A.77.77,0,0,0,5,5.24.78.78,0,0,0,5.73,6a.77.77,0,0,0,.77-.78A.76.76,0,0,0,5.73,4.47Z"/><path class="cls-2" d="M11.59,8c-.11-.83-.49-1.36-1.63-1.36a1.41,1.41,0,0,0-1.31.6h0v-.6H7.39v4.44h1.3V8.92c0-.58.11-1.14.83-1.14s.77.66.77,1.18v2.16h1.33V8.68A6.4,6.4,0,0,0,11.59,8Z"/></g></g></svg>