<svg xmlns="http://www.w3.org/2000/svg" xmlns:xlink="http://www.w3.org/1999/xlink" viewBox="0 0 174 56.88"><defs><style>.cls-1{fill:#fff;}.cls-2{fill:url(#linear-gradient);}.cls-3{fill:url(#linear-gradient-2);}</style><linearGradient id="linear-gradient" x1="130.97" y1="44.91" x2="43.03" y2="-43.03" gradientUnits="userSpaceOnUse"><stop offset="0.09" stop-color="#9adbf9"/><stop offset="0.43" stop-color="#007b9c"/><stop offset="0.58" stop-color="#00648b"/><stop offset="0.78" stop-color="#007b9c"/><stop offset="1" stop-color="#9adbf9"/></linearGradient><linearGradient id="linear-gradient-2" x1="130.97" y1="99.91" x2="43.03" y2="11.97" xlink:href="#linear-gradient"/></defs><title>our ethos</title><g id="Layer_2" data-name="Layer 2"><g id="Layer_1-2" data-name="Layer 1"><path class="cls-1" d="M10.07,10.2A8,8,0,0,1,16,12.64a8,8,0,0,1,2.42,5.86V37.42a8,8,0,0,1-2.44,5.88,8,8,0,0,1-5.86,2.42,7.92,7.92,0,0,1-5.86-2.43A8,8,0,0,1,1.8,37.42V18.5a8,8,0,0,1,2.43-5.88A8,8,0,0,1,10.07,10.2Zm2.85,8.19a3,3,0,0,0-3-3,2.9,2.9,0,0,0-2.13.88,2.84,2.84,0,0,0-.88,2.11v19a2.88,2.88,0,0,0,.88,2.12,2.93,2.93,0,0,0,2.13.87,3,3,0,0,0,3-3Z"/><path class="cls-1" d="M32,45.7a8.23,8.23,0,0,1-8.27-8.25V10.65h5.12V37.4a2.85,2.85,0,0,0,.89,2.11,2.93,2.93,0,0,0,2.13.87,3,3,0,0,0,3-3V10.65h5.45v26.8a7.89,7.89,0,0,1-2.43,5.87A8.12,8.12,0,0,1,32,45.7Z"/><path class="cls-1" d="M54,10.65q4.38,0,6.42,2.4a8.75,8.75,0,0,1,1.8,5.87v5a8.13,8.13,0,0,1-2.79,6.23l3.87,15.13H57.59L54.42,32.25H50.94V45.31H45.71V10.65ZM57.08,19c0-2-1-3-3-3H50.94v11.1h3.15a2.87,2.87,0,0,0,2.12-.89,2.93,2.93,0,0,0,.87-2.13Z"/><path class="cls-1" d="M72,45.31V10.62H86.88v5.25H77.23v9.46h7v5.26h-7v9.46h9.65v5.26Z"/><path class="cls-1" d="M96.82,15.9H91.26V10.65h16.32V15.9H102V45.31H96.82Z"/><path class="cls-1" d="M117.79,30.62V45.31h-5.23V10.65h5.23V25.36h6.31V10.65h5.23V45.31H124.1V30.62Z"/><path class="cls-1" d="M143,10.2a8,8,0,0,1,5.88,2.44,8,8,0,0,1,2.42,5.86V37.42a8.29,8.29,0,0,1-14.16,5.87,8.06,8.06,0,0,1-2.41-5.87V18.5A8.3,8.3,0,0,1,143,10.2Zm2.85,8.19a2.87,2.87,0,0,0-.87-2.11,2.84,2.84,0,0,0-2.11-.88,2.9,2.9,0,0,0-2.13.88,2.85,2.85,0,0,0-.89,2.11v19a2.89,2.89,0,0,0,.89,2.12,2.93,2.93,0,0,0,2.13.87,2.87,2.87,0,0,0,2.11-.87,2.91,2.91,0,0,0,.87-2.12Z"/><path class="cls-1" d="M173.65,36.68a9.72,9.72,0,0,1-1.88,6.19,6.76,6.76,0,0,1-3.6,2.47,10,10,0,0,1-2.9.38,8.19,8.19,0,0,1-5.09-1.52,8.43,8.43,0,0,1-2.67-3.39,13.52,13.52,0,0,1-1.15-4.91l5-.36a7.65,7.65,0,0,0,1.6,4.4,2.69,2.69,0,0,0,2.16,1,3.24,3.24,0,0,0,2.74-1.69,4.18,4.18,0,0,0,.53-2.3,6.38,6.38,0,0,0-2-4.29l-4.64-4.4a19.9,19.9,0,0,1-3.68-4.51,10.4,10.4,0,0,1-1.17-4.88,8.48,8.48,0,0,1,3.19-7.17A7.86,7.86,0,0,1,165,10.2a8.85,8.85,0,0,1,4.79,1.25,7.13,7.13,0,0,1,2.5,2.71,10,10,0,0,1,1.15,4l-5,.91a6.11,6.11,0,0,0-1.22-3.32,2.56,2.56,0,0,0-2.08-.85,2.38,2.38,0,0,0-2.18,1.27,4.85,4.85,0,0,0-.61,2.54,7.6,7.6,0,0,0,2.05,4.84,16.92,16.92,0,0,0,2.32,2.22c1.22,1,2,1.72,2.41,2.13a17.54,17.54,0,0,1,3,3.82,14.43,14.43,0,0,1,.81,1.63A9.67,9.67,0,0,1,173.65,36.68Z"/><rect class="cls-2" width="174" height="1.88"/><rect class="cls-3" y="55" width="174" height="1.88"/></g></g></svg>