<svg xmlns="http://www.w3.org/2000/svg" xmlns:xlink="http://www.w3.org/1999/xlink" viewBox="0 0 16.57 16.51"><defs><style>.cls-1{stroke-miterlimit:10;stroke-width:0.75px;stroke:url(#linear-gradient);}.cls-2{fill:#fff;}</style><linearGradient id="linear-gradient" x1="14.13" y1="2.41" x2="2.44" y2="14.1" gradientUnits="userSpaceOnUse"><stop offset="0" stop-color="#045d97"/><stop offset="0.24" stop-color="#4f9bc8"/><stop offset="0.51" stop-color="#fff"/><stop offset="0.77" stop-color="#4f9bc8"/><stop offset="1" stop-color="#045d97"/></linearGradient></defs><title>twitter</title><g id="Layer_2" data-name="Layer 2"><g id="Layer_1-2" data-name="Layer 1"><ellipse class="cls-1" cx="8.28" cy="8.25" rx="7.91" ry="7.88"/><path class="cls-2" d="M12.65,5.63a3.62,3.62,0,0,1-.94.25A1.59,1.59,0,0,0,12.43,5a3.43,3.43,0,0,1-1,.39,1.65,1.65,0,0,0-1.19-.51A1.62,1.62,0,0,0,8.57,6.48a1.47,1.47,0,0,0,0,.36A4.67,4.67,0,0,1,5.24,5.17,1.55,1.55,0,0,0,5,6a1.6,1.6,0,0,0,.73,1.34A1.71,1.71,0,0,1,5,7.11v0a1.43,1.43,0,0,0,.12.58,1.64,1.64,0,0,0,1.2,1,2.12,2.12,0,0,1-.44.06l-.3,0A1.63,1.63,0,0,0,7.1,9.84a3.31,3.31,0,0,1-2,.68,2.55,2.55,0,0,1-.39,0,4.69,4.69,0,0,0,2.51.72,4.59,4.59,0,0,0,4.65-4.56,1.27,1.27,0,0,0,0-.2A3.4,3.4,0,0,0,12.65,5.63Z"/></g></g></svg>