<svg xmlns="http://www.w3.org/2000/svg" xmlns:xlink="http://www.w3.org/1999/xlink" viewBox="0 0 16.57 16.51"><defs><style>.cls-1{stroke-miterlimit:10;stroke-width:0.75px;stroke:url(#linear-gradient);}.cls-2{fill:#fff;}</style><linearGradient id="linear-gradient" x1="14.13" y1="14.1" x2="2.44" y2="2.41" gradientUnits="userSpaceOnUse"><stop offset="0" stop-color="#045d97"/><stop offset="0.24" stop-color="#4f9bc8"/><stop offset="0.51" stop-color="#fff"/><stop offset="0.77" stop-color="#4f9bc8"/><stop offset="1" stop-color="#045d97"/></linearGradient></defs><title>youtube</title><g id="Layer_2" data-name="Layer 2"><g id="Layer_1-2" data-name="Layer 1"><ellipse class="cls-1" cx="8.28" cy="8.25" rx="7.91" ry="7.88"/><path class="cls-2" d="M12.15,6.59a1.83,1.83,0,0,0-.32-.82,1.11,1.11,0,0,0-.8-.35c-1.11-.08-2.79-.08-2.79-.08h0s-1.67,0-2.79.08a1.11,1.11,0,0,0-.79.35,1.85,1.85,0,0,0-.32.83,12.64,12.64,0,0,0-.08,1.33v.63A13,13,0,0,0,4.34,9.9a1.83,1.83,0,0,0,.32.82,1.35,1.35,0,0,0,.87.36c.64.06,2.71.08,2.71.08s1.68,0,2.79-.09a1.11,1.11,0,0,0,.8-.35,1.83,1.83,0,0,0,.32-.82,13,13,0,0,0,.08-1.34V7.93A13,13,0,0,0,12.15,6.59ZM9.57,8.16,7.42,9.32V7l1,.52Z"/></g></g></svg>